<svg width="53" height="27" viewBox="0 0 53 27" fill="none" xmlns="http://www.w3.org/2000/svg">
<g filter="url(#filter0_d_239_84)">
<path d="M40.6239 13.9775L44.5 9.99996M44.5 9.99996L40.6239 6.02246M44.5 9.99996L35.9835 9.99996M31 4.37491L31 15.625C31 17.489 32.511 19 34.375 19L45.625 19C47.489 19 49 17.489 49 15.625L49 4.37491C49 2.51095 47.489 0.99991 45.625 0.99991L34.375 0.99991C32.511 0.99991 31 2.51095 31 4.37491Z" stroke="#F1DDFF" stroke-width="2" stroke-linecap="round" stroke-linejoin="round"/>
<path d="M12.3761 13.9776L8.5 10.0001M8.5 10.0001L12.3761 6.02255M8.5 10.0001L17.0165 10.0001M22 4.375L22 15.6251C22 17.4891 20.489 19.0001 18.625 19.0001L7.375 19.0001C5.51104 19.0001 4 17.4891 4 15.6251L4 4.375C4 2.51104 5.51104 1 7.375 1L18.625 1C20.489 1 22 2.51104 22 4.375Z" stroke="#F1DDFF" stroke-width="2" stroke-linecap="round" stroke-linejoin="round"/>
</g>
<defs>
<filter id="filter0_d_239_84" x="0.0999999" y="-9.15527e-05" width="52.8" height="26.9002" filterUnits="userSpaceOnUse" color-interpolation-filters="sRGB">
<feFlood flood-opacity="0" result="BackgroundImageFix"/>
<feColorMatrix in="SourceAlpha" type="matrix" values="0 0 0 0 0 0 0 0 0 0 0 0 0 0 0 0 0 0 127 0" result="hardAlpha"/>
<feOffset dy="4"/>
<feGaussianBlur stdDeviation="1.45"/>
<feComposite in2="hardAlpha" operator="out"/>
<feColorMatrix type="matrix" values="0 0 0 0 0.839167 0 0 0 0 0.997319 0 0 0 0 1 0 0 0 0.25 0"/>
<feBlend mode="normal" in2="BackgroundImageFix" result="effect1_dropShadow_239_84"/>
<feBlend mode="normal" in="SourceGraphic" in2="effect1_dropShadow_239_84" result="shape"/>
</filter>
</defs>
</svg>
